<svg id="Capa_1" enable-background="new 0 0 512 512" viewBox="0 0 512 512" xmlns="http://www.w3.org/2000/svg"><g><g id="Page-1_92_"><g id="_x30_93---Gear-Pointer">
<path id="Shape_478_" d="m461.714 347.429c-7.574 0-13.714 6.14-13.714 13.714v22.857c0 5.049-4.093 9.143-9.143 9.143-5.049 0-9.143-4.093-9.143-9.143v-50.286c0-7.574-6.14-13.714-13.714-13.714s-13.714 6.14-13.714 13.714v50.286c0 5.049-4.093 9.143-9.143 9.143-5.049 0-9.143-4.093-9.143-9.143v-77.714c0-7.574-6.14-13.714-13.714-13.714s-13.714 6.14-13.714 13.714v77.714c0 5.049-4.093 9.143-9.143 9.143s-9.143-4.093-9.143-9.143v-150.857c-.013-2.596-.768-5.134-2.176-7.314l-.137-.247c-3.351-5.012-9.582-7.248-15.355-5.51s-9.734 7.042-9.761 13.071v160c0 .101-.055.183-.055.274-.057.621-.18 1.234-.366 1.829-.097.593-.253 1.175-.466 1.737 0 .091 0 .192-.073.274-.671.862-1.344 1.721-2.021 2.578-.442.374-.924.699-1.435.969-.476.336-.985.623-1.518.859-.616.193-1.25.321-1.893.384-.432.112-.872.191-1.317.238-.101 0-.183-.055-.283-.055-.595-.062-1.183-.181-1.755-.357-.605-.1-1.199-.259-1.774-.475-.091 0-.192 0-.274-.073l-48.549-24.283c-8.838-4.687-19.777-2.166-25.673 5.915-2.326 3.373-3.584 7.368-3.611 11.465-.021 6.234 2.93 12.105 7.945 15.808 20.891 15.389 40.781 32.093 59.547 50.011 10.726 11.113 19.786 23.721 26.898 37.431.889 1.608 1.94 3.121 3.136 4.517.215.242.414.499.594.768 5.204 5.761 12.606 9.047 20.37 9.042h100.571c20.198 0 36.571-16.374 36.571-36.571v-114.285c.003-7.574-6.138-13.714-13.712-13.714z" fill="#fff"/></g></g></g></svg>