<svg id="Layer_2_00000031188415978638475110000007345060480431324077_" enable-background="new 0 0 512 512" viewBox="0 0 512 512" xmlns="http://www.w3.org/2000/svg"><g id="Icon"><path id="Question_Mark" d="m279.8 84.9c12.4 0 24.1 2.4 35.1 7.1 11 4.8 20.5 11.2 28.7 19.4s14.6 17.7 19.3 28.6 7 22.6 7 35-2.3 24.1-7 35.1-11.1 20.5-19.3 28.7-17.8 14.6-28.7 19.4-22.7 7.1-35.1 7.1c-4.3 0-8.1.8-11.4 2.3s-6 3.7-8.2 6.4-3.8 5.9-4.9 9.5-1.7 7.6-1.7 11.7v15.9h-59.9v-16.8c.1-12.3 2.3-23.9 6.6-34.8s10.2-20.4 17.8-28.4 16.7-14.4 27.2-19.1 22-7 34.6-7c4.2 0 8.1-.8 11.7-2.3s6.8-3.7 9.5-6.4 4.9-5.9 6.5-9.6 2.4-7.7 2.4-11.8-.8-8.1-2.4-11.7-3.8-6.8-6.5-9.5-5.9-4.8-9.5-6.4c-3.6-1.5-7.6-2.3-11.7-2.3h-137.8v-60.1zm-55.8 270.5c4.9 0 9.5.9 13.8 2.8s8.1 4.4 11.3 7.7c3.2 3.2 5.8 7 7.7 11.3s2.8 9 2.8 13.8c0 4.9-.9 9.8-2.8 14.2s-4.4 8.2-7.7 11.4c-3.2 3.2-7 5.8-11.3 7.7s-8.9 2.8-13.8 2.8-9.5-.9-13.9-2.8-8.2-4.4-11.5-7.7c-3.3-3.2-5.9-7-7.8-11.4s-2.8-9.1-2.8-14.2c0-5 .9-9.5 2.8-13.8s4.5-8.1 7.8-11.3 7.1-5.8 11.5-7.7 9-2.8 13.9-2.8m55.8-290.5h-137.7c-11.1 0-20 8.9-20 20v60.2c0 11.1 8.9 20 20 20h137.7c1.5 0 2.8.2 3.9.7 1.3.5 2.3 1.2 3.2 2.1 1 1 1.8 2.1 2.4 3.5.5 1.1.7 2.2.7 3.6s-.2 2.7-.8 3.9c-.6 1.4-1.4 2.5-2.3 3.4s-1.9 1.6-3.2 2.1c-1.2.5-2.4.7-3.9.7-15.3 0-29.7 3-42.7 8.8-12.8 5.7-24.1 13.7-33.5 23.6s-16.8 21.6-21.9 34.9c-5.1 13.1-7.8 27.2-8 41.9v.2 16.8c0 11 8.9 20 20 20h59.9c11 0 20-9 20-20v-15.9c0-2.2.3-4.1.8-5.8.4-1.2.9-2.2 1.5-3 .1-.1.3-.4 1-.7.2-.1 1-.4 2.9-.4 15.1 0 29.6-2.9 43.1-8.8 13.2-5.7 25-13.7 34.9-23.6 10-9.9 17.9-21.7 23.5-35 5.7-13.4 8.6-27.9 8.6-43s-2.9-29.5-8.6-42.9c-5.7-13.2-13.6-24.9-23.5-34.9-9.9-9.9-21.7-17.9-34.9-23.6-13.5-5.8-28-8.8-43.1-8.8zm-55.8 270.5c-7.6 0-14.9 1.5-21.8 4.5-6.7 2.9-12.6 6.8-17.6 11.7-5.1 5-9.2 10.9-12.1 17.6-3 6.9-4.5 14.2-4.5 21.8s1.5 15.1 4.4 22c2.9 6.8 7 12.8 12.1 17.8 5 4.9 11 8.9 17.6 11.7 6.9 3 14.2 4.5 21.8 4.5s15-1.5 21.8-4.5c6.6-2.9 12.5-6.9 17.5-11.8 5-5 9-11 11.9-17.7 2.9-6.9 4.4-14.3 4.4-22s-1.5-15-4.5-21.8c-2.9-6.6-6.9-12.5-11.8-17.5-5-5-10.9-9-17.5-11.9-6.7-2.9-14-4.4-21.7-4.4z" fill="#fff"></path></g></svg>