<svg id="Layer_1" viewBox="-20 -20 572 572" xmlns="http://www.w3.org/2000/svg" data-name="Layer 1">
<path fill="#fff" d="m343.124 33.093h-41.136a48.5 48.5 0 0 0 -91.976 0h-41.136a16 16 0 0 0 -16 16v20.45h-27.985a37.421 37.421 0 0 0 -37.378 37.378v367.7a37.421 37.421 0 0 0 37.378 37.379h262.218a37.421 37.421 0 0 0 37.378-37.378v-367.7a37.421 37.421 0 0 0 -37.378-37.378h-27.985v-20.451a16 16 0 0 0 -16-16zm-158.248 32h38.637a16 16 0 0 0 16-16.313v-.285a16.5 16.5 0 0 1 32.99 0v.325a16 16 0 0 0 16 16.274h38.637v41.54h-142.264zm202.233 36.45a5.45 5.45 0 0 1 5.378 5.378v367.7a5.45 5.45 0 0 1 -5.378 5.379h-262.218a5.45 5.45 0 0 1 -5.378-5.378v-367.7a5.45 5.45 0 0 1 5.378-5.378h27.985v21.09a16 16 0 0 0 16 16h174.248a16 16 0 0 0 16-16v-21.09zm-38.109 67.228a16 16 0 0 1 0 32h-186a16 16 0 0 1 0-32zm16 256a16 16 0 0 1 -16 16h-186a16 16 0 1 1 0-32h186a16 16 0 0 1 16 16zm0-80a16 16 0 0 1 -16 16h-186a16 16 0 0 1 0-32h186a16 16 0 0 1 16 16zm0-80a16 16 0 0 1 -16 16h-186a16 16 0 1 1 0-32h186a16 16 0 0 1 16 16z">
</path>
</svg>