<svg version="1.1" id="Capa_1" xmlns="http://www.w3.org/2000/svg" xmlns:xlink="http://www.w3.org/1999/xlink" x="0px" y="0px" viewBox="0 0 512 512" style="enable-background:new 0 0 512 512;" xml:space="preserve">
<g>
<g>
<circle fill="#fff" cx="256" cy="64" r="64"></circle>
</g>
</g>
<g>
<g>
<path fill="#fff" d="M376.48,194.432c-74.272-46.208-166.592-46.24-240.928,0C130.848,197.344,128,202.464,128,208v32c0,8.832,7.168,16,16,16 h224c8.832,0,16-7.168,16-16v-32C384,202.464,381.152,197.344,376.48,194.432z">
</path>
</g>
</g>
<g>
<g>
<path fill="#fff" d="M400,288H112c-8.832,0-16,7.168-16,16v64c0,8.832,7.168,16,16,16h35.52l28.96,115.872 C178.272,507.008,184.672,512,192,512h128c7.328,0,13.76-4.992,15.52-12.128L364.512,384H400c8.832,0,16-7.168,16-16v-64 C416,295.168,408.832,288,400,288z">
</path>
</g>
</g>
</svg>